<?xml version="1.0" standalone="no"?>
<!DOCTYPE svg PUBLIC "-//W3C//DTD SVG 20010904//EN"
 "http://www.w3.org/TR/2001/REC-SVG-20010904/DTD/svg10.dtd">
<svg version="1.0" xmlns="http://www.w3.org/2000/svg"
 width="1280.000000pt" height="660.000000pt" viewBox="0 0 1280.000000 660.000000"
 preserveAspectRatio="xMidYMid meet">
<metadata>
Created by potrace 1.15, written by Peter Selinger 2001-2017
</metadata>
<g transform="translate(0.000000,660.000000) scale(0.100000,-0.100000)"
fill="#000000" stroke="none">
<path d="M39 6587 c-21 -16 -39 -51 -39 -75 0 -23 70 -88 147 -138 48 -31 59
-34 130 -34 70 0 83 -3 122 -30 25 -17 55 -48 68 -70 13 -22 44 -51 68 -65 36
-22 44 -32 50 -65 9 -54 41 -99 100 -138 30 -20 60 -52 76 -81 15 -26 46 -60
69 -76 73 -50 90 -79 90 -146 0 -71 20 -125 52 -140 13 -5 32 -27 43 -47 15
-27 32 -41 65 -53 41 -15 48 -22 82 -91 55 -110 147 -195 248 -227 73 -23 130
-66 130 -98 0 -22 61 -82 121 -118 68 -42 89 -68 89 -110 0 -37 49 -118 83
-137 13 -7 44 -28 67 -45 38 -29 50 -33 108 -33 51 0 78 -6 131 -31 80 -38 97
-53 123 -104 25 -50 57 -85 77 -85 9 0 40 -10 69 -22 52 -22 54 -22 120 -5 90
23 98 22 156 -18 49 -33 55 -34 151 -37 89 -2 105 0 136 20 31 19 38 20 55 8
32 -22 85 -28 139 -14 43 11 57 11 105 -4 125 -39 153 -41 228 -19 114 34 152
25 152 -38 0 -29 40 -51 104 -58 39 -4 57 -11 61 -22 3 -9 30 -42 59 -74 l54
-58 49 6 c26 4 52 11 57 16 5 4 18 3 29 -2 14 -8 32 -7 64 2 42 11 49 10 89
-11 41 -23 47 -23 102 -12 105 22 128 13 92 -36 -27 -36 -15 -74 32 -98 18 -9
40 -25 49 -36 12 -16 35 -21 119 -28 63 -6 119 -6 144 0 23 5 57 10 76 10 20
0 40 4 46 10 14 14 101 -71 136 -132 34 -58 69 -81 162 -104 97 -23 164 -58
206 -106 30 -33 44 -41 83 -45 48 -6 48 -6 82 -73 37 -74 62 -91 130 -89 22 0
71 -2 108 -5 58 -5 72 -3 92 12 20 16 32 18 85 10 40 -5 68 -4 81 3 30 15 150
-35 204 -86 23 -22 56 -47 72 -56 17 -9 49 -44 72 -78 47 -69 88 -95 131 -86
30 7 32 5 125 -80 12 -12 30 -43 40 -70 25 -68 48 -91 132 -131 78 -38 123
-81 123 -120 0 -53 63 -84 138 -66 25 5 51 8 58 5 7 -2 23 -30 35 -61 13 -33
46 -81 76 -114 31 -34 56 -72 63 -96 12 -47 64 -97 115 -111 19 -5 49 -21 66
-35 17 -14 41 -26 54 -26 44 0 75 -22 96 -69 11 -25 28 -55 39 -66 10 -11 22
-32 25 -48 5 -19 15 -29 34 -32 14 -3 39 -12 54 -20 16 -8 48 -15 71 -15 44 0
66 -13 66 -40 0 -9 13 -34 29 -56 38 -51 44 -79 31 -137 -9 -42 -7 -54 11 -98
19 -43 20 -52 8 -60 -8 -5 -19 -9 -25 -9 -6 0 -19 -9 -28 -19 -17 -19 -17 -22
8 -75 14 -30 26 -68 26 -84 0 -42 34 -81 78 -88 51 -8 66 -21 85 -78 19 -54
16 -66 -9 -45 -15 12 -16 11 -9 -11 11 -36 55 -121 70 -137 7 -7 11 -22 8 -33
-3 -12 0 -21 8 -23 8 -2 30 -9 49 -15 32 -10 33 -10 16 3 -11 8 -31 15 -44 15
-20 0 -23 4 -18 24 4 15 0 28 -9 36 -13 11 -55 93 -55 108 0 3 14 -7 30 -23
17 -16 30 -23 30 -16 0 8 12 4 33 -10 26 -19 23 -14 -13 22 -29 28 -48 41 -53
34 -6 -6 -7 -3 -4 6 12 38 -78 204 -91 168 -7 -17 -49 -9 -70 14 -14 15 -22
36 -22 59 0 19 -9 56 -21 82 -21 49 -19 66 10 66 41 0 55 -24 57 -99 1 -67 14
-101 37 -101 5 0 2 9 -8 20 -15 16 -18 36 -18 88 1 61 -1 69 -25 89 -15 13
-22 23 -16 23 22 0 24 31 4 67 -16 30 -18 49 -13 113 4 51 2 84 -6 99 -18 33
-8 35 27 6 16 -14 39 -25 49 -25 22 0 53 -29 54 -51 0 -8 15 -34 33 -59 29
-40 38 -46 79 -50 43 -5 49 -9 68 -45 12 -22 27 -47 35 -56 8 -9 13 -34 12
-56 -1 -23 6 -50 15 -64 10 -13 17 -18 17 -11 0 16 62 16 78 0 7 -7 12 -22 12
-34 0 -12 11 -47 25 -78 19 -43 33 -60 56 -70 19 -8 37 -26 45 -44 8 -21 22
-34 41 -38 40 -10 81 -41 88 -67 4 -12 24 -38 44 -58 20 -20 54 -59 76 -88 22
-28 47 -53 55 -56 8 -4 1 8 -15 26 -23 24 -25 30 -10 24 11 -5 35 -9 53 -9 41
1 40 -13 -3 -59 -35 -37 -43 -61 -25 -72 6 -3 11 -16 11 -28 1 -16 3 -17 6 -5
2 9 -1 27 -7 39 -10 19 -7 26 24 58 20 20 36 43 37 51 0 10 4 8 10 -5 8 -18 8
-18 6 5 -2 30 -59 62 -95 54 -18 -4 -34 6 -73 45 -27 27 -49 46 -49 43 -1 -4
-6 5 -13 20 -17 38 -96 131 -133 157 -18 12 -44 26 -60 30 -15 4 -31 14 -35
22 -26 49 -39 86 -39 110 0 35 -24 59 -60 59 -51 0 -60 8 -54 49 5 30 0 43
-26 79 -17 24 -29 49 -27 55 2 7 -2 17 -9 22 -6 6 -15 20 -19 33 l-6 22 33
-20 c18 -10 47 -27 63 -36 17 -9 45 -27 63 -41 29 -22 32 -28 26 -58 -5 -30
-2 -36 40 -71 26 -21 51 -53 57 -72 6 -18 13 -31 16 -28 3 3 19 -2 35 -10 20
-10 1 14 -56 71 -47 48 -86 93 -86 99 0 29 23 36 54 17 22 -13 59 -20 123 -24
50 -3 102 -11 115 -17 22 -12 22 -12 6 6 -14 14 -39 19 -117 24 -90 5 -102 9
-136 35 -20 17 -45 34 -56 40 -10 5 -19 17 -19 25 0 8 -11 39 -25 69 -14 30
-23 56 -20 59 3 3 16 0 29 -6 24 -11 36 -7 36 10 0 5 -4 6 -10 3 -5 -3 -10 -1
-10 5 0 6 6 10 13 9 26 -3 47 1 47 11 0 6 -10 10 -22 10 -35 0 -68 11 -68 22
0 7 18 9 46 5 42 -4 57 -14 67 -40 1 -5 18 -4 37 1 34 10 34 10 7 11 -16 1
-40 10 -54 21 -18 14 -41 20 -75 20 -34 0 -57 6 -78 22 -16 12 -32 19 -36 16
-3 -4 4 -9 15 -13 29 -9 26 -32 -5 -39 -35 -9 -52 7 -33 30 13 16 12 16 -5 7
-22 -12 -64 -1 -106 27 -14 9 -36 20 -50 23 -29 7 -67 33 -60 41 9 8 98 8 165
0 46 -5 70 -15 105 -41 49 -37 39 -37 183 -15 31 4 63 5 70 0 6 -4 36 -8 65
-8 28 0 52 -4 52 -8 0 -23 43 -52 76 -52 28 0 43 -9 79 -46 40 -41 48 -45 76
-39 27 6 36 2 73 -33 22 -22 52 -42 66 -45 40 -9 144 -48 158 -59 6 -6 12 -25
12 -44 0 -55 16 -83 90 -159 11 -12 20 -32 20 -47 0 -19 9 -31 35 -47 41 -24
66 -73 58 -113 -4 -20 2 -36 21 -58 14 -18 26 -41 26 -54 0 -36 27 -63 75 -75
45 -11 48 -15 57 -75 2 -10 10 -22 18 -26 8 -4 25 -12 37 -18 13 -7 35 -12 50
-12 18 0 41 -13 69 -41 39 -38 44 -40 71 -30 28 10 28 10 2 8 -17 -1 -41 12
-75 41 -27 23 -55 40 -63 37 -7 -3 -31 2 -52 12 -33 14 -39 21 -39 48 0 34
-26 65 -54 65 -21 0 -58 19 -68 34 -14 21 -8 36 15 36 12 0 32 7 44 15 20 14
25 12 75 -21 29 -20 56 -41 60 -47 6 -9 8 -9 8 0 0 12 -13 23 -84 69 -35 23
-40 24 -62 9 -35 -23 -56 -18 -86 19 -20 25 -28 46 -28 76 0 40 -23 100 -38
100 -20 0 -52 43 -52 69 0 19 -8 34 -24 44 -42 28 -86 106 -86 152 0 24 -6 47
-13 53 -13 11 -137 60 -174 69 -27 6 -30 21 -5 29 9 3 32 12 51 20 33 15 33
15 68 -26 19 -22 44 -40 54 -40 50 0 84 -47 112 -152 12 -45 26 -68 65 -108
48 -49 52 -50 91 -44 40 6 43 5 83 -40 36 -40 47 -46 77 -44 l36 1 -32 4 c-20
3 -37 12 -44 25 -8 14 -8 18 0 14 6 -4 24 0 40 9 48 24 77 20 91 -15 16 -40
23 -33 9 8 -6 18 -18 33 -27 33 -31 2 -57 -3 -69 -13 -9 -7 -17 -7 -27 1 -11
9 -15 9 -19 -1 -3 -10 -9 -10 -23 -2 -11 6 -19 16 -19 22 0 6 -4 14 -9 19 -5
5 -6 3 -2 -4 5 -8 1 -13 -9 -13 -11 0 -15 5 -12 14 4 10 1 13 -9 9 -8 -3 -21
0 -29 7 -13 11 -14 10 -10 -3 10 -23 -11 -29 -44 -12 -29 15 -60 54 -44 56 24
3 79 -4 87 -11 5 -5 15 -6 23 -3 7 3 24 -3 36 -13 l22 -19 -19 22 c-19 23 -35
28 -127 38 l-55 6 -16 52 c-21 69 -12 80 61 75 40 -2 63 2 79 14 28 19 51 14
113 -24 25 -15 55 -28 67 -28 11 0 40 -16 63 -36 61 -50 81 -57 132 -39 57 20
70 19 95 -8 19 -20 21 -31 16 -70 -6 -42 -5 -47 17 -55 36 -14 148 -34 158
-28 5 3 16 -5 25 -19 12 -18 26 -25 47 -25 27 0 33 -6 54 -55 19 -42 33 -59
60 -72 35 -17 35 -16 64 11 36 34 64 29 88 -17 8 -18 24 -43 34 -56 11 -13 19
-32 19 -42 0 -9 12 -31 26 -48 23 -27 30 -30 63 -25 29 5 40 2 55 -15 10 -11
22 -18 27 -16 4 3 32 -5 61 -19 29 -13 66 -28 82 -32 19 -6 32 -18 36 -34 16
-57 62 -139 82 -146 12 -3 43 -27 70 -52 44 -41 51 -44 73 -34 26 12 25 14 62
-53 6 -11 18 -19 28 -17 10 2 37 -7 61 -20 38 -20 48 -21 74 -11 31 12 32 11
51 -30 10 -23 19 -56 19 -73 0 -42 19 -48 72 -24 24 11 36 20 28 19 -8 0 -26
-6 -39 -13 -33 -18 -51 -10 -51 24 0 16 -4 40 -9 53 -8 21 -6 26 12 31 45 12
92 6 104 -13 6 -10 26 -21 43 -25 23 -4 35 -14 43 -35 8 -22 19 -31 45 -36 25
-5 36 -13 43 -35 6 -16 21 -36 35 -45 16 -10 24 -25 24 -44 0 -33 33 -113 54
-130 10 -9 8 2 -6 31 -12 24 -23 62 -26 86 -4 33 -12 49 -33 65 -16 11 -29 28
-29 37 0 22 -28 46 -62 54 -18 4 -28 13 -28 25 0 23 -16 37 -52 46 -17 4 -30
17 -37 35 -14 41 -44 54 -105 45 -121 -16 -132 -16 -183 3 -37 13 -60 29 -76
53 -20 30 -28 34 -60 31 -31 -2 -39 1 -48 21 -6 13 -26 31 -44 40 -44 21 -81
71 -95 130 -7 26 -16 50 -21 53 -10 6 -12 47 -4 56 3 3 29 1 58 -4 36 -7 62
-7 83 1 50 18 80 1 88 -49 4 -24 17 -52 31 -66 27 -27 65 -32 65 -8 0 8 13 20
30 25 32 12 32 29 0 29 -12 0 -26 -13 -35 -30 -19 -36 -25 -37 -53 -7 -28 29
-28 36 1 31 l22 -5 -22 10 c-13 6 -23 17 -23 26 0 19 11 19 35 1 13 -10 26
-11 50 -3 25 7 40 5 74 -13 31 -15 46 -19 54 -11 6 6 22 11 36 12 15 0 20 3
14 6 -17 6 -16 23 1 23 7 0 21 -11 30 -25 20 -30 33 -31 66 -4 l25 20 -32 -16
c-31 -15 -33 -14 -49 10 -20 31 -43 32 -78 4 -27 -21 -28 -21 -66 -4 -23 10
-52 15 -71 13 -33 -5 -75 11 -118 44 -27 20 -61 24 -78 7 -8 -8 -30 -8 -79 0
-42 6 -72 7 -79 1 -12 -10 -68 57 -99 118 -9 18 -28 38 -41 44 -26 12 -29 19
-19 56 8 28 19 28 42 1 30 -37 112 -117 112 -109 0 4 -31 40 -70 79 -39 40
-70 76 -70 81 0 5 7 16 16 24 14 15 19 14 52 -12 45 -36 102 -65 110 -58 3 3
1 6 -3 6 -5 0 0 7 11 15 18 14 17 14 -14 8 -27 -5 -42 1 -87 32 -31 21 -61 35
-70 32 -8 -4 -22 -33 -32 -67 -10 -33 -23 -60 -29 -60 -6 0 -23 10 -38 21 -22
17 -35 20 -67 15 -60 -10 -144 32 -160 81 -11 35 -11 35 -59 29 -36 -5 -50 -3
-60 9 -7 8 -27 15 -45 15 -32 0 -33 1 -28 37 4 36 2 41 -50 85 l-54 46 -61 -5
c-55 -5 -64 -3 -92 21 -36 30 -62 32 -113 11 -20 -8 -44 -12 -54 -9 -16 6 -83
69 -83 79 0 2 17 13 37 26 21 12 47 30 58 40 23 19 93 28 265 35 63 2 137 9
163 14 26 6 63 10 81 10 19 0 39 7 47 17 8 9 43 30 79 46 36 16 82 45 102 64
l37 36 93 -12 c51 -7 94 -14 96 -16 9 -9 59 25 72 49 9 18 22 26 39 26 15 0
36 7 48 15 17 12 36 14 85 8 171 -19 296 1 341 54 l28 33 94 -1 c51 -1 98 2
104 5 6 4 36 2 67 -4 54 -11 64 -18 156 -102 23 -21 45 -38 49 -38 4 0 14 -6
21 -13 7 -7 49 -22 93 -35 103 -28 272 -25 339 8 25 12 77 23 134 29 67 6 102
14 120 28 44 33 75 47 117 54 l40 6 -46 2 c-35 1 -56 -6 -95 -31 -43 -27 -62
-32 -154 -40 -66 -6 -114 -15 -129 -25 -35 -23 -260 -22 -293 1 -12 9 -31 16
-41 16 -33 0 -92 38 -161 104 -39 37 -78 66 -90 66 -12 1 -32 7 -45 14 -18 10
-47 12 -101 9 -48 -4 -91 -1 -114 7 -32 10 -40 10 -55 -4 -10 -9 -25 -16 -34
-16 -9 0 -26 -13 -38 -30 -17 -23 -33 -31 -68 -35 -25 -3 -65 -10 -88 -15 -30
-7 -50 -6 -75 4 -18 7 -39 11 -47 8 -7 -2 -30 1 -51 8 -34 11 -42 10 -73 -9
-19 -11 -47 -21 -63 -21 -35 0 -44 -6 -68 -43 -14 -23 -22 -27 -39 -22 -12 4
-38 9 -57 10 -19 2 -51 7 -71 10 -42 8 -109 -21 -134 -58 -8 -13 -38 -30 -72
-42 -32 -10 -63 -24 -69 -31 -24 -29 -73 -37 -235 -39 -92 -1 -173 -6 -180
-11 -8 -5 -39 -9 -69 -9 -48 0 -62 -5 -115 -43 -34 -23 -64 -42 -68 -42 -4 0
-7 16 -7 35 0 46 -33 80 -91 95 -83 21 -129 42 -149 68 -44 60 -100 92 -169
99 -31 3 -65 11 -76 17 -11 6 -38 16 -60 21 -36 10 -43 17 -72 77 -30 62 -35
68 -75 78 -24 7 -57 21 -75 31 -20 13 -40 18 -56 13 -18 -4 -39 2 -70 20 -32
19 -58 26 -95 26 -46 0 -56 4 -101 44 -39 34 -60 45 -98 50 -97 13 -211 -24
-288 -95 -45 -42 -48 -43 -118 -44 -55 -1 -85 -8 -126 -28 -30 -14 -59 -23
-65 -19 -6 3 -59 7 -119 8 -106 3 -107 3 -132 33 -15 17 -50 39 -83 51 -31 12
-75 34 -97 50 -23 15 -54 30 -70 32 -26 3 -34 12 -60 65 -16 34 -49 81 -71
105 -23 24 -54 68 -68 99 -45 97 -85 125 -167 117 -41 -4 -42 -3 -82 59 -36
56 -47 66 -123 104 -77 38 -103 59 -72 59 7 0 36 26 64 57 l51 58 78 -39 c109
-54 217 -80 264 -65 10 3 17 -7 22 -29 4 -19 12 -39 18 -45 6 -6 11 -26 11
-43 0 -37 35 -72 83 -81 16 -3 35 -16 43 -29 15 -22 27 -27 113 -40 33 -5 53
-15 74 -39 28 -31 31 -32 90 -28 57 5 64 3 86 -21 14 -15 36 -26 50 -26 14 -1
37 -7 50 -14 20 -11 31 -11 71 2 45 14 50 14 134 -13 85 -27 88 -27 148 -13
l62 15 65 -35 c36 -19 79 -47 94 -61 26 -24 35 -26 127 -26 90 0 101 -2 124
-24 14 -13 28 -32 31 -41 7 -22 73 -75 105 -85 17 -4 9 4 -22 27 -30 20 -56
49 -68 75 -21 44 -89 91 -112 77 -6 -4 -40 -6 -76 -5 -57 2 -68 5 -91 30 -15
16 -60 45 -101 66 l-75 38 -82 -13 c-82 -13 -82 -13 -121 13 -37 26 -41 27
-112 18 -58 -8 -79 -7 -101 5 -16 8 -36 14 -45 14 -10 0 -29 10 -42 23 -20 18
-34 22 -88 21 -48 -1 -64 3 -64 13 0 21 -59 51 -116 59 -41 5 -58 13 -78 35
-15 16 -35 29 -45 29 -36 0 -50 12 -57 48 -3 21 -12 46 -19 58 -7 11 -15 41
-17 65 l-3 44 46 -3 c35 -2 54 3 82 23 63 42 94 55 134 55 21 1 49 7 62 14 31
17 82 -2 118 -44 15 -19 38 -32 61 -36 20 -3 49 -14 64 -25 36 -25 112 -25
163 1 50 25 55 25 55 -3 0 -32 27 -55 70 -59 32 -3 37 -8 55 -53 11 -28 39
-70 62 -94 38 -40 44 -43 71 -33 24 8 31 7 40 -8 17 -27 98 -63 127 -56 30 8
55 53 55 101 0 41 17 46 46 14 15 -16 26 -20 55 -15 43 7 90 -13 113 -49 20
-30 29 -31 65 -4 39 29 59 16 116 -72 43 -67 48 -71 76 -65 20 4 42 -1 70 -16
37 -19 45 -20 73 -9 62 26 77 25 103 -3 15 -17 31 -25 41 -21 8 3 33 -6 54
-20 36 -24 42 -25 61 -12 12 8 46 22 75 32 53 17 54 17 77 -5 23 -22 27 -22
84 -10 33 7 71 10 84 6 16 -4 29 0 37 9 11 14 16 13 44 -3 34 -20 66 -33 66
-28 0 2 -21 16 -46 31 -40 23 -50 25 -69 15 -18 -9 -27 -9 -44 2 -18 11 -26
11 -52 -4 -40 -23 -78 -23 -104 2 -20 19 -21 19 -85 -1 -35 -11 -70 -25 -77
-31 -11 -9 -20 -6 -39 15 -16 17 -35 27 -53 27 -15 0 -36 9 -45 19 -10 11 -29
21 -42 23 l-24 3 31 33 c35 38 61 40 92 9 18 -17 30 -21 52 -16 29 6 29 7 4 8
-15 0 -38 10 -52 21 -38 30 -65 25 -118 -25 -40 -37 -55 -45 -86 -45 -21 0
-48 7 -60 15 -14 10 -32 13 -47 9 -22 -5 -30 2 -74 69 l-50 76 39 41 c30 32
43 39 56 32 10 -5 54 -17 98 -27 44 -10 89 -24 100 -32 11 -7 31 -13 45 -13
17 0 34 -12 54 -36 27 -34 31 -36 85 -33 31 1 75 -3 98 -11 40 -12 46 -11 94
14 l51 26 32 -20 c32 -19 33 -19 87 1 30 11 64 31 76 44 27 30 40 92 24 108
-17 17 -13 37 8 37 12 0 25 -11 33 -27 10 -21 22 -29 48 -31 38 -4 114 29 124
53 3 9 19 15 40 15 19 0 38 5 41 10 3 6 23 10 44 10 30 0 48 -9 91 -46 52 -44
55 -46 104 -39 61 7 102 7 176 1 31 -3 65 0 77 6 17 8 29 8 48 0 19 -9 32 -8
61 4 51 21 135 10 165 -22 26 -27 46 -30 74 -10 11 7 37 16 58 20 20 3 53 9
72 12 20 4 49 1 66 -6 25 -11 32 -11 39 0 6 11 16 10 49 -3 25 -10 42 -13 46
-7 3 6 -4 10 -17 10 -13 0 -34 7 -46 16 -18 12 -26 13 -37 4 -11 -9 -22 -9
-49 1 -27 10 -43 10 -74 1 -22 -7 -53 -12 -69 -12 -17 0 -36 -7 -43 -15 -17
-20 -22 -19 -65 15 -33 26 -45 30 -99 29 -33 0 -70 -4 -81 -8 -11 -5 -28 -4
-39 1 -13 7 -38 6 -77 -2 -50 -11 -64 -10 -106 5 -46 16 -51 16 -81 1 -45 -23
-79 -20 -105 10 -12 14 -41 37 -65 51 -34 20 -50 24 -85 19 -23 -4 -61 -9 -85
-12 -27 -4 -48 -13 -55 -25 -6 -10 -17 -19 -23 -19 -6 0 -17 -7 -24 -15 -18
-22 -46 -18 -63 9 -9 13 -29 28 -44 33 -60 21 -103 -24 -85 -88 14 -51 0 -76
-50 -90 -33 -9 -50 -9 -73 1 -56 22 -63 22 -104 -6 -41 -27 -41 -27 -81 -9
-27 12 -51 16 -82 11 -49 -7 -55 -4 -87 42 -18 25 -30 33 -50 31 -14 -2 -39 4
-56 12 -45 23 -229 63 -256 56 -13 -4 -31 -20 -41 -36 -11 -20 -29 -33 -54
-40 -36 -10 -41 -9 -70 20 -20 20 -34 45 -38 69 -13 81 -108 115 -196 70 -53
-27 -74 -60 -66 -104 5 -28 3 -37 -11 -44 -42 -22 -80 -23 -137 -2 -52 20 -59
26 -80 73 -26 59 -51 85 -92 96 -19 5 -30 15 -32 29 -4 25 -56 72 -81 72 -10
0 -27 -11 -38 -24 -30 -35 -98 -44 -126 -18 -12 11 -39 23 -59 26 -23 4 -56
23 -82 45 -55 48 -103 58 -165 36 -24 -8 -60 -15 -80 -15 -25 0 -53 -11 -89
-35 -47 -30 -58 -34 -97 -28 -33 4 -51 1 -70 -11 l-26 -17 -19 45 c-20 45
-105 135 -140 148 -15 5 -17 14 -13 46 3 23 0 49 -8 64 -17 32 -138 125 -173
134 -14 3 -26 9 -26 14 0 10 119 3 133 -8 7 -5 35 -17 64 -26 28 -10 57 -24
63 -32 15 -17 92 -19 121 -3 29 15 52 -7 46 -44 -3 -24 1 -32 27 -48 17 -10
43 -19 58 -19 15 0 30 -5 33 -10 3 -5 16 -10 29 -10 12 0 33 -12 47 -26 20
-22 30 -25 63 -21 21 3 61 17 89 31 30 16 58 24 71 21 17 -5 18 -4 6 5 -13 9
-12 12 4 25 11 8 25 15 30 15 20 0 55 -68 62 -119 4 -29 14 -57 25 -67 16 -15
20 -15 48 2 17 10 31 22 31 27 0 5 5 7 11 5 6 -2 10 -7 9 -12 -3 -14 22 -26
53 -26 23 0 31 7 47 45 21 50 41 57 64 23 9 -12 16 -19 16 -14 0 4 -9 21 -21
37 -15 21 -29 29 -50 29 -33 0 -91 27 -129 60 -20 18 -33 21 -67 16 -37 -5
-46 -2 -75 24 -38 35 -34 36 38 13 48 -15 56 -15 96 -1 24 9 70 21 103 27 99
18 102 19 71 20 -44 2 -157 -20 -189 -36 -25 -12 -34 -12 -90 8 -36 13 -77 36
-97 56 -34 33 -35 34 -15 49 15 11 33 13 75 7 48 -7 84 -7 148 -3 36 3 108
-13 124 -28 10 -8 24 -12 32 -9 8 3 35 -1 62 -9 55 -16 108 -18 133 -4 13 7
29 4 57 -10 21 -11 52 -20 69 -20 16 0 47 -5 68 -11 36 -10 41 -8 77 23 49 42
52 59 3 22 -38 -29 -64 -33 -140 -19 -45 8 -54 18 -27 29 9 4 14 9 11 12 -3 3
-15 0 -27 -6 -18 -10 -29 -9 -56 6 -19 10 -34 21 -34 25 0 16 -41 15 -77 -1
-35 -15 -43 -16 -66 -3 -21 10 -32 11 -48 3 -16 -9 -23 -8 -32 3 -12 15 -75
28 -129 27 -16 0 -40 0 -55 0 -26 -1 -107 9 -214 25 -33 5 -54 3 -77 -9 -40
-21 -37 -22 -60 18 l-20 33 -103 9 c-57 4 -108 7 -114 7 -37 -6 -101 -26 -112
-35 -7 -5 -24 -7 -38 -4 -29 7 -102 -10 -125 -30 -17 -15 -116 -10 -162 8 -22
8 -33 7 -51 -5 -22 -14 -26 -14 -49 1 -14 9 -40 32 -57 51 -27 29 -35 32 -59
25 -15 -5 -54 -9 -86 -8 -50 0 -62 4 -75 23 -42 62 -154 148 -214 166 -42 12
-58 29 -99 104 -10 17 -25 31 -36 31 -10 0 -43 -20 -73 -45 -30 -24 -67 -55
-84 -68 -16 -13 -47 -27 -67 -31 -31 -6 -37 -4 -43 13 -9 28 -31 44 -73 50
l-37 6 -1 59 c-1 49 -5 62 -23 78 -29 23 -103 24 -137 1 -25 -16 -26 -16 -91
52 -61 64 -68 68 -112 70 -25 1 -59 7 -76 14 -22 9 -40 9 -77 0 -41 -9 -52 -9
-73 5 -13 9 -29 16 -36 16 -6 0 -57 -32 -112 -71 -76 -53 -105 -69 -117 -62
-8 5 -33 44 -54 87 -34 67 -48 84 -93 112 -36 24 -55 43 -59 62 -11 52 -22 69
-59 87 -53 25 -128 17 -182 -19 -38 -25 -52 -28 -145 -31 -57 -2 -106 -4 -110
-4 -3 -1 -20 -13 -37 -27 l-31 -26 -34 21 c-54 34 -328 139 -382 146 -27 4
-57 12 -68 17 -17 9 -16 11 10 29 16 10 40 19 53 19 14 0 43 12 64 27 22 15
56 33 76 40 31 11 40 10 69 -7 40 -24 54 -25 91 -6 26 14 32 13 87 -14 32 -16
85 -34 118 -41 58 -13 59 -13 78 14 11 15 37 36 57 46 35 18 38 18 61 2 14
-10 43 -24 65 -32 37 -14 44 -14 105 8 46 16 57 23 38 23 -31 0 -33 3 -18 31
7 11 21 19 38 19 15 0 38 7 52 15 50 29 52 29 73 1 15 -21 25 -26 46 -21 23 5
33 -3 87 -68 66 -78 101 -97 181 -97 23 0 57 -7 76 -15 25 -10 57 -13 106 -10
68 5 72 3 167 -45 54 -28 107 -50 117 -50 11 0 37 -16 58 -35 32 -29 46 -35
82 -34 62 1 92 12 95 34 2 18 2 18 -8 3 -18 -28 -84 -33 -134 -8 -41 19 -64
46 -51 58 3 3 11 0 17 -6 7 -7 17 -12 23 -12 5 0 2 7 -8 14 -12 9 -32 12 -58
9 -34 -5 -53 1 -115 33 -40 21 -72 43 -71 49 2 5 21 15 42 21 30 8 42 18 52
42 16 38 37 41 58 8 12 -18 27 -25 68 -29 29 -3 57 -1 62 3 6 5 37 17 70 29
l60 20 45 -49 c45 -50 82 -71 123 -69 25 1 19 4 -41 19 -34 9 -50 21 -78 60
-40 56 -51 59 -124 30 -29 -11 -74 -20 -106 -20 -48 0 -56 3 -66 25 -6 14 -19
25 -30 25 -10 0 -18 5 -18 10 0 20 30 22 70 6 22 -9 53 -16 68 -16 21 1 15 5
-26 19 -28 10 -62 27 -74 37 -12 10 -18 14 -15 8 4 -7 -10 -23 -31 -38 -48
-33 -69 -34 -37 -1 14 13 25 29 25 35 0 5 7 10 16 10 8 0 12 5 9 10 -11 17
-23 11 -37 -17 -8 -18 -34 -38 -68 -56 l-55 -27 -51 19 c-59 23 -120 73 -140
116 -8 17 -27 50 -42 75 -27 44 -30 45 -83 48 -81 3 -99 9 -92 29 5 12 1 11
-15 -5 -12 -12 -32 -24 -44 -27 -13 -3 -41 -9 -63 -15 -40 -10 -40 -10 11 -5
44 3 55 0 74 -20 32 -34 22 -55 -38 -77 -54 -20 -54 -20 -75 0 -12 11 -32 22
-44 24 -21 3 -21 3 -3 41 21 44 7 40 -16 -4 -8 -17 -21 -28 -28 -26 -16 6 -76
-19 -76 -32 0 -5 -15 -12 -32 -16 -18 -4 -43 -14 -56 -22 -19 -12 -26 -12 -39
-1 -11 8 -58 13 -149 15 -74 2 -149 4 -166 5 -61 2 -137 -14 -154 -33 -21 -23
-55 -24 -96 -3 -26 14 -37 14 -75 3 -25 -6 -61 -23 -80 -36 -19 -13 -49 -27
-67 -30 -17 -3 -42 -12 -54 -20 -19 -12 -29 -12 -53 -3 -22 9 -36 10 -56 1
-60 -23 -98 -18 -142 22 -23 20 -47 37 -55 37 -8 0 -43 13 -78 30 -68 32 -97
36 -146 19 -27 -9 -37 -8 -64 9 -18 11 -53 23 -77 27 -25 4 -69 16 -100 26
-30 11 -69 19 -88 19 -19 0 -52 9 -75 21 -37 19 -46 20 -82 9 -23 -7 -53 -19
-68 -26 -24 -13 -31 -13 -57 1 -17 8 -44 15 -61 15 -31 0 -42 7 -132 78 -23
19 -69 47 -102 64 -34 17 -75 41 -91 54 -74 56 -185 81 -237 53 -17 -9 -25 -6
-52 18 -17 16 -55 47 -84 67 -29 21 -73 67 -99 105 -75 107 -91 121 -137 122
-63 0 -119 29 -165 82 -23 27 -41 54 -41 61 0 21 -42 119 -59 140 -9 10 -38
29 -66 42 -27 12 -62 36 -77 52 -24 26 -28 39 -28 87 0 78 -20 115 -107 193
-41 37 -84 84 -94 104 -12 23 -41 52 -76 75 -52 34 -58 43 -65 83 -9 51 -50
107 -96 129 -18 10 -42 35 -57 63 -14 27 -36 53 -48 59 -12 7 -33 25 -47 41
-20 24 -37 31 -90 38 -36 5 -89 10 -118 10 -44 0 -58 5 -79 26 -59 59 -126 80
-164 51z m1976 -1771 c28 -13 61 -35 74 -49 13 -14 38 -29 55 -33 39 -8 88
-37 103 -62 10 -16 -1 -14 -65 14 -56 24 -92 34 -131 34 -47 0 -58 4 -92 35
-22 19 -44 35 -49 35 -19 0 -10 31 13 40 32 13 37 12 92 -14z m3001 -106 c41
0 56 -4 61 -16 27 -72 142 -200 187 -210 52 -11 69 -23 55 -40 -17 -21 -43
-17 -68 12 -17 20 -28 24 -47 20 -13 -4 -34 -1 -45 5 -17 9 -25 7 -44 -11 -17
-16 -31 -21 -49 -16 -14 3 -36 1 -50 -5 -24 -11 -29 -8 -73 41 -74 81 -85 110
-43 110 11 0 27 11 36 25 16 24 15 38 -2 79 -6 16 -4 18 10 13 10 -4 42 -7 72
-7z m-316 -84 c-20 -19 -70 -32 -70 -18 0 15 31 31 60 32 21 0 22 -2 10 -14z
m-2345 -26 c28 -16 58 -30 68 -30 10 0 31 -10 46 -21 l29 -21 81 27 c80 26 82
26 126 10 30 -12 58 -16 85 -11 28 4 50 1 70 -9 16 -8 53 -20 82 -26 29 -6 70
-22 92 -36 29 -19 46 -23 70 -18 77 15 97 16 130 5 20 -6 36 -16 36 -20 0 -5
-7 -7 -14 -4 -8 3 -39 -1 -70 -10 -70 -21 -83 -20 -113 4 -33 26 -73 25 -126
-1 -59 -31 -154 -28 -206 7 -21 13 -63 30 -93 36 -48 10 -65 9 -115 -6 -58
-18 -59 -18 -93 3 -35 20 -159 151 -143 151 4 0 31 -14 58 -30z m1896 -40 c11
0 19 -4 19 -10 0 -11 -108 -14 -135 -4 -31 12 7 25 54 19 24 -3 52 -5 62 -5z
m349 0 c0 -13 -52 -60 -67 -60 -21 0 -15 36 10 53 25 18 57 22 57 7z m-230 -9
c0 -5 -13 -14 -30 -21 -16 -7 -36 -23 -45 -37 -14 -21 -22 -24 -48 -18 -18 3
-45 8 -61 10 -29 4 -69 27 -96 54 -13 13 -13 14 5 7 19 -7 125 -25 152 -26 6
0 18 6 26 14 8 8 29 16 48 19 19 2 37 5 42 5 4 1 7 -2 7 -7z m80 5 c0 -3 -4
-8 -10 -11 -5 -3 -10 -1 -10 4 0 6 5 11 10 11 6 0 10 -2 10 -4z m50 -31 c11
-13 8 -15 -13 -15 -26 0 -42 12 -30 24 11 11 30 7 43 -9z m958 -90 c-22 -21
-74 -34 -116 -28 l-39 5 21 22 c12 12 29 20 39 18 10 -3 25 2 35 11 27 24 66
26 70 3 2 -10 -2 -24 -10 -31z m-308 35 c0 -5 -4 -10 -10 -10 -5 0 -10 5 -10
10 0 6 5 10 10 10 6 0 10 -4 10 -10z m91 -29 c47 -38 -16 -58 -94 -30 -58 22
-41 35 59 48 7 0 22 -8 35 -18z m-151 -11 c0 -5 -9 -10 -19 -10 -11 0 -23 5
-26 10 -4 6 5 10 19 10 14 0 26 -4 26 -10z m-1755 -11 c12 -19 -5 -23 -22 -6
-16 16 -16 17 -1 17 9 0 20 -5 23 -11z m1260 -249 c19 -38 37 -57 75 -78 43
-23 53 -36 80 -95 16 -37 30 -71 30 -76 0 -23 -137 -28 -205 -7 l-40 12 3 53
c4 51 3 54 -42 97 -43 41 -50 44 -101 44 -30 0 -65 -5 -79 -11 -30 -14 -77 -4
-70 14 3 8 44 17 111 25 98 12 172 36 188 62 12 20 25 9 50 -40z m-608 -30 c8
0 11 -4 8 -10 -12 -19 -34 -10 -57 23 l-23 32 29 -22 c16 -13 35 -23 43 -23z
m1339 -141 c14 -16 26 -19 50 -14 26 4 37 0 61 -22 61 -58 127 -103 150 -103
14 0 36 9 50 20 31 24 43 18 43 -20 0 -66 45 -130 92 -130 18 0 33 -8 43 -24
34 -51 141 -44 211 13 97 80 105 85 115 70 5 -8 9 -19 9 -26 0 -20 61 -63 90
-63 19 0 41 -12 65 -34 20 -19 49 -39 63 -44 21 -7 28 -17 33 -45 7 -47 8 -48
66 -58 26 -5 64 -20 85 -34 21 -14 43 -25 49 -25 7 0 37 -12 67 -27 39 -19 69
-26 106 -26 32 1 60 -5 76 -15 14 -9 39 -21 55 -27 17 -6 57 -31 88 -54 l57
-44 -6 -49 c-6 -42 -4 -52 16 -73 13 -14 28 -25 34 -25 22 0 96 -76 121 -124
27 -53 27 -63 -2 -48 -10 5 -36 13 -57 16 -22 4 -79 28 -128 52 -103 53 -145
56 -166 12 -7 -16 -22 -32 -32 -38 -16 -9 -20 -7 -26 14 -7 30 -32 53 -92 86
-29 15 -58 43 -77 71 -16 25 -62 78 -102 117 l-72 72 -64 0 c-46 0 -68 4 -77
16 -23 27 -46 34 -76 22 -25 -9 -40 -6 -98 17 -61 24 -76 27 -120 19 -31 -6
-66 -6 -89 0 -31 8 -50 6 -89 -8 -40 -14 -65 -16 -120 -11 -69 7 -70 8 -84 44
-8 20 -18 43 -22 51 -10 17 -109 70 -133 70 -9 0 -24 10 -32 23 -21 33 -138
92 -232 118 -95 25 -99 29 -131 90 -13 27 -40 61 -59 76 -19 15 -35 34 -35 40
0 7 23 24 50 38 28 14 53 32 57 40 6 17 39 20 48 5 9 -14 46 -12 75 5 36 20
74 18 96 -6z m2113 -479 c49 -30 81 -70 44 -55 -58 24 -132 36 -180 30 -44 -5
-55 -3 -72 14 l-21 21 23 5 c12 3 47 6 77 8 30 2 61 4 67 5 7 1 35 -12 62 -28z
m63 20 c10 0 25 -14 33 -30 14 -27 14 -31 0 -36 -9 -4 -29 7 -50 25 -20 17
-40 31 -46 31 -6 0 -7 5 -3 11 3 6 16 8 28 5 11 -3 29 -6 38 -6z m-812 -31 c0
-5 -9 -4 -19 3 -11 7 -17 16 -14 20 5 10 33 -10 33 -23z m523 -44 c6 -11 29
-14 95 -13 71 1 102 -3 170 -26 45 -15 106 -30 135 -33 28 -4 57 -13 63 -21 6
-9 18 -13 28 -9 11 4 27 -3 46 -22 17 -15 30 -30 30 -33 0 -3 -18 -13 -40 -23
-29 -13 -53 -16 -89 -12 -45 5 -51 4 -66 -19 l-16 -25 -64 36 c-46 25 -71 34
-89 29 -38 -9 -66 11 -66 50 0 20 -8 40 -20 51 -18 16 -25 17 -54 7 -45 -17
-70 -15 -108 7 -18 10 -47 22 -65 26 -37 7 -63 32 -42 39 8 2 21 7 29 10 26 9
115 -5 123 -19z m411 0 c-4 -8 -13 -15 -21 -15 -13 0 -13 3 -3 15 7 8 16 15
21 15 5 0 6 -7 3 -15z m88 3 c-9 -9 -15 -9 -24 0 -9 9 -7 12 12 12 19 0 21 -3
12 -12z m-52 -18 c0 -5 -5 -10 -11 -10 -5 0 -7 5 -4 10 3 6 8 10 11 10 2 0 4
-4 4 -10z m640 -14 c0 -11 -19 -15 -25 -6 -3 5 1 10 9 10 9 0 16 -2 16 -4z
m-601 -22 c17 -12 20 -19 11 -28 -8 -8 -15 -7 -24 7 -7 9 -23 17 -35 17 -12 0
-19 4 -16 10 9 15 38 12 64 -6z m248 -147 c15 -12 42 -29 58 -36 28 -12 28
-14 10 -21 -11 -5 -45 -6 -75 -3 -46 4 -60 10 -83 36 l-28 32 33 6 c54 10 55
10 85 -14z m-1507 -27 c12 -16 27 -30 33 -30 15 0 87 -73 87 -89 0 -6 -11 -11
-25 -11 -19 0 -32 11 -55 48 -17 26 -47 62 -67 79 -34 29 -35 33 -16 33 13 0
30 -12 43 -30z m1227 20 c21 0 23 -3 14 -14 -11 -13 -40 -22 -106 -31 -16 -2
-22 -2 -13 1 9 3 24 17 33 30 10 16 22 23 32 20 8 -3 26 -6 40 -6z m328 -71
c5 5 31 11 58 14 l47 7 -18 -28 c-10 -15 -22 -36 -28 -46 -15 -28 -27 -29 -54
-6 -29 26 -44 25 -80 -2 -36 -26 -45 -19 -55 38 l-6 41 62 -13 c35 -7 68 -9
74 -5z m740 -336 c10 -9 15 -26 12 -39 -3 -15 4 -31 19 -45 26 -24 34 -49 9
-29 -9 8 -28 10 -55 5 -27 -5 -40 -3 -40 5 0 6 -16 18 -35 26 -29 12 -35 20
-35 43 0 23 6 32 28 39 41 16 79 14 97 -5z m-185 -148 c0 -29 1 -29 -37 -14
-27 10 -27 11 -9 25 29 21 46 17 46 -11z m310 -25 c0 -5 -4 -10 -10 -10 -5 0
-10 5 -10 10 0 6 5 10 10 10 6 0 10 -4 10 -10z m917 -196 c-3 -3 -12 -4 -19
-1 -8 3 -5 6 6 6 11 1 17 -2 13 -5z m-1159 -354 c37 -22 112 -54 167 -71 157
-49 215 -87 215 -141 0 -20 16 -46 56 -91 31 -34 68 -75 81 -90 14 -15 42 -34
61 -43 46 -19 138 -28 176 -16 22 6 39 3 65 -10 19 -10 45 -18 56 -18 20 0 48
-29 74 -78 11 -20 9 -23 -16 -34 -15 -7 -53 -12 -83 -13 -30 0 -63 -4 -72 -9
-14 -6 -18 -4 -18 9 0 23 -63 85 -87 85 -11 0 -34 16 -53 35 -37 39 -60 42
-113 20 -38 -16 -58 -12 -95 16 -16 12 -33 16 -61 12 -34 -5 -40 -2 -60 26
-15 21 -38 35 -70 45 -27 8 -60 26 -74 40 -21 21 -36 26 -75 26 -26 0 -57 6
-67 14 -14 10 -25 11 -38 5 -10 -6 -26 -7 -37 -4 -11 3 -34 -1 -52 -9 -47 -22
-81 -14 -127 27 -34 30 -46 35 -90 35 -27 1 -60 6 -71 12 -16 8 -30 8 -56 0
-33 -11 -38 -10 -63 14 -31 30 -68 33 -112 10 -29 -15 -31 -14 -59 16 l-29 31
59 -7 c55 -6 63 -4 110 26 54 34 60 35 187 14 42 -6 43 -6 58 29 17 41 78 96
126 113 66 24 115 17 187 -26z m-803 -170 c-36 -29 -44 -29 -74 -6 -10 8 -6
13 20 22 19 7 47 13 63 13 l29 1 -38 -30z m85 -15 c18 -22 6 -29 -46 -30 -49
0 -48 -1 -34 26 13 23 62 26 80 4z m1276 -70 c16 -4 44 -14 63 -22 19 -8 56
-17 83 -18 30 -2 61 -10 76 -22 15 -11 35 -22 45 -26 9 -3 17 -13 17 -22 0
-12 -4 -13 -18 -6 -10 5 -54 7 -99 4 -78 -6 -143 7 -143 27 0 4 -15 23 -32 42
-62 67 -88 100 -88 111 0 6 15 -5 33 -25 19 -20 47 -40 63 -43z m-1132 39 c22
-9 20 -24 -3 -24 -21 0 -34 13 -24 24 8 7 8 7 27 0z m2 -44 c19 -1 35 -9 47
-25 22 -30 4 -34 -33 -8 -13 9 -38 16 -55 15 -16 -1 -37 2 -45 8 -13 9 -12 12
4 25 17 13 22 13 36 0 9 -8 30 -15 46 -15z m-132 -1 c-6 -11 -41 -11 -69 0
-13 5 -5 8 28 8 26 1 45 -3 41 -8z m142 -44 c9 -8 33 -15 55 -15 32 0 48 -7
84 -41 25 -23 48 -54 52 -68 3 -14 12 -35 20 -47 16 -26 9 -34 -34 -34 -31 0
-33 2 -33 35 0 55 -25 85 -70 85 -58 0 -88 15 -96 47 -4 15 -11 34 -17 41 -14
18 21 16 39 -3z m-52 -17 c18 -26 7 -43 -22 -34 -27 9 -36 56 -11 56 10 0 25
-10 33 -22z m284 -63 c25 -21 36 -24 73 -19 39 5 47 3 69 -21 l25 -27 -56 7
c-31 4 -73 7 -93 8 -33 1 -40 6 -57 39 -24 46 -7 52 39 13z m-125 -32 c16 -19
20 -34 18 -72 -1 -24 -1 -24 -16 -5 -8 10 -15 25 -15 33 0 8 -7 19 -17 26 -9
7 -13 17 -9 23 10 17 20 15 39 -5z m150 -49 c-4 -10 -9 -12 -15 -6 -12 12 -1
35 12 27 5 -3 6 -13 3 -21z m64 -3 c-3 -12 1 -18 10 -17 9 0 19 -6 23 -14 41
-80 39 -100 -7 -68 -34 24 -37 29 -48 86 -5 26 -3 32 10 32 12 0 16 -6 12 -19z
m1280 9 c21 0 43 -31 43 -61 0 -45 -39 -36 -63 14 -9 20 -22 37 -27 37 -6 0
-10 5 -10 11 0 7 9 9 23 5 12 -3 27 -6 34 -6z m-1321 -37 c-11 -11 -19 6 -11
24 8 17 8 17 12 0 3 -10 2 -21 -1 -24z m14 -28 c0 -9 -6 -12 -15 -9 -8 4 -15
10 -15 15 0 5 7 9 15 9 8 0 15 -7 15 -15z m-76 -1 c9 -3 16 -14 16 -23 0 -13
-8 -16 -42 -13 -39 4 -57 15 -58 35 0 8 62 10 84 1z m1996 -315 c0 -14 -7 -16
-42 -12 -24 2 -50 7 -58 10 -14 5 -25 7 -79 11 -19 2 -21 5 -11 16 6 8 10 25
8 38 -3 20 1 23 25 20 15 -2 35 1 44 7 13 7 28 0 65 -32 26 -22 48 -48 48 -58z
m92 -100 c11 -6 35 -11 54 -11 24 0 35 -5 39 -19 4 -10 11 -19 18 -19 6 0 -2
-13 -18 -30 -35 -36 -51 -30 -94 40 -32 53 -32 57 1 39z m-1713 -108 c13 -10
19 -21 14 -24 -11 -7 -53 19 -53 34 0 14 12 11 39 -10z m1991 -6 c30 7 90 -19
90 -38 0 -6 -10 -25 -21 -44 -35 -56 -88 -65 -89 -15 0 7 -11 30 -25 50 -32
46 -33 67 -4 52 11 -6 33 -8 49 -5z m166 -80 c38 -41 109 -154 101 -162 -4 -3
-49 15 -101 41 -74 36 -101 44 -125 40 -35 -7 -44 11 -11 21 11 3 34 26 50 51
17 24 36 44 42 44 6 0 25 -16 44 -35z m-1873 -162 c-7 -2 -19 -2 -25 0 -7 3
-2 5 12 5 14 0 19 -2 13 -5z m2633 -378 c18 -13 17 -14 -17 -15 -20 0 -51 -3
-68 -6 -36 -8 -42 8 -8 24 32 15 70 14 93 -3z"/>
<path d="M4932 4825 c0 -16 2 -22 5 -12 2 9 2 23 0 30 -3 6 -5 -1 -5 -18z"/>
<path d="M4660 4506 c0 -3 9 -10 20 -16 11 -6 20 -8 20 -6 0 3 -9 10 -20 16
-11 6 -20 8 -20 6z"/>
<path d="M8918 2183 c6 -2 18 -2 25 0 6 3 1 5 -13 5 -14 0 -19 -2 -12 -5z"/>
<path d="M8350 1546 c0 -2 7 -9 15 -16 9 -7 15 -8 15 -2 0 5 -7 12 -15 16 -8
3 -15 4 -15 2z"/>
<path d="M9648 1293 c7 -3 16 -2 19 1 4 3 -2 6 -13 5 -11 0 -14 -3 -6 -6z"/>
<path d="M8607 1239 c4 -13 8 -18 11 -10 2 7 -1 18 -6 23 -8 8 -9 4 -5 -13z"/>
<path d="M8623 1187 c2 -6 20 -16 42 -24 21 -7 53 -25 72 -39 33 -25 48 -23
16 3 -29 23 -134 71 -130 60z"/>
<path d="M11045 1151 c-11 -5 -29 -19 -40 -32 l-20 -24 20 17 c11 9 36 24 55
32 36 16 21 21 -15 7z"/>
<path d="M8123 1105 c0 -22 2 -30 4 -17 2 12 2 30 0 40 -3 9 -5 -1 -4 -23z"/>
<path d="M9658 770 c-2 -21 0 -36 4 -34 5 3 8 16 8 29 0 14 7 25 18 27 14 3
13 5 -5 10 -19 5 -22 1 -25 -32z"/>
<path d="M8929 608 c7 -10 23 -17 35 -17 20 1 20 2 1 6 -11 3 -27 10 -35 17
-13 10 -13 9 -1 -6z"/>
<path d="M11876 24 c-4 -9 -4 -19 -1 -22 2 -3 7 3 11 12 4 9 4 19 1 22 -2 3
-7 -3 -11 -12z"/>
</g>
</svg>
